<svg xmlns="http://www.w3.org/2000/svg" viewBox="0 0 21.66 21.23" xmlns:v="https://vecta.io/nano"><path d="M10.83 20.34h0c-5.37 0-9.73-4.36-9.73-9.73h0C1.1 5.24 5.46.88 10.83.88h0c5.37 0 9.73 4.36 9.73 9.73h0a9.73 9.73 0 0 1-9.73 9.73z" fill="none" stroke="#151715" stroke-width=".432" stroke-miterlimit="10"/><path d="M17.14 10.66L15.5 7.9c.19-.09.32-.28.32-.5a.55.55 0 0 0-.55-.55c-.03 0-.05 0-.07.01A6.28 6.28 0 0 0 12 5.24c-.03-.58-.51-1.05-1.1-1.05a1.1 1.1 0 0 0-1.1 1.05c-1.17.21-2.3.75-3.22 1.64-.06-.02-.12-.03-.18-.03a.55.55 0 0 0-.55.55c0 .22.13.42.32.5l-1.64 2.76h-.34a2.23 2.23 0 0 0 2.2 1.89 2.23 2.23 0 0 0 2.2-1.89h-.32L6.63 7.91c.19-.09.32-.28.32-.5a.58.58 0 0 0-.1-.32c.86-.81 1.9-1.32 2.99-1.51.09.36.36.64.71.76v8.52c-.2 0-1.05.37-1.9.83-.85.45-1.54.99-1.54 1.2 0 .2.86.37 1.9.37h3.8c1.05 0 1.9-.17 1.9-.37s-.69-.74-1.54-1.2c-.85-.45-1.7-.83-1.9-.83V6.33c.34-.12.61-.4.71-.76 1.05.19 2.06.67 2.9 1.44a.55.55 0 0 0-.16.39c0 .22.13.42.32.5l-1.64 2.76h-.33c.17 1.07 1.09 1.89 2.2 1.89a2.23 2.23 0 0 0 2.2-1.89h-.33z" fill="#2a2b2a"/></svg>