<svg xmlns="http://www.w3.org/2000/svg" viewBox="0 0 21.66 21.23" xmlns:v="https://vecta.io/nano"><path d="M10.83 20.34h0c-5.37 0-9.73-4.36-9.73-9.73h0C1.1 5.24 5.46.88 10.83.88h0c5.37 0 9.73 4.36 9.73 9.73h0a9.73 9.73 0 0 1-9.73 9.73z" fill="none" stroke="#151715" stroke-width=".432" stroke-miterlimit="10"/><path d="M14.49 12.29l-1.37-.65c-.18-.07-.32-.1-.45.1s-.52.65-.64.78-.23.15-.44.05c-.2-.1-.85-.31-1.61-.99-.59-.52-1-1.18-1.11-1.37-.11-.2-.01-.31.09-.41.09-.09.2-.23.3-.35.03-.03.05-.07.07-.1.05-.07.08-.14.13-.24.07-.12.04-.24-.01-.33C9.4 8.68 9 7.7 8.83 7.3s-.34-.33-.46-.33c-.11 0-.25-.02-.38-.02a.73.73 0 0 0-.53.25c-.18.2-.7.68-.7 1.66a2.6 2.6 0 0 0 .1.68 4.38 4.38 0 0 0 .72 1.38c.1.13 1.39 2.2 3.42 3 2.04.79 2.04.53 2.41.49.37-.03 1.19-.48 1.35-.95.17-.46.17-.86.12-.95-.06-.07-.19-.12-.39-.22z" fill-rule="evenodd" fill="#2a2b2a"/></svg>