<svg xmlns="http://www.w3.org/2000/svg" viewBox="0 0 21.66 21.23" xmlns:v="https://vecta.io/nano"><path d="M10.83 20.34h0c-5.37 0-9.73-4.36-9.73-9.73h0C1.1 5.24 5.46.88 10.83.88h0c5.37 0 9.73 4.36 9.73 9.73h0a9.73 9.73 0 0 1-9.73 9.73z" fill="none" stroke="#151715" stroke-width=".432" stroke-miterlimit="10"/><path d="M10.83 7.55a3.17 3.17 0 0 0 0 6.34 3.17 3.17 0 0 0 0-6.34zm0 5.44c-1.25 0-2.27-1.02-2.27-2.27s1.02-2.27 2.27-2.27 2.27 1.02 2.27 2.27-1.02 2.27-2.27 2.27zm5.4-3.91l.44-.95-.63-1.08-1.01-.1-.34-.35-.1-1.05-1.08-.62-.92.42c-.15-.05-.31-.09-.47-.13l-.62-.86h-1.25l-.59.83-.47.12-.95-.43-1.09.62-.1 1.01-.34.34-1.05.1-.62 1.09.42.92-.13.47-.85.61v1.25l.83.59c.03.16.07.32.12.47l-.44.96.63 1.08 1.01.1.34.35.1 1.05 1.08.63.92-.42c.15.05.31.09.47.13l.61.85h1.25l.59-.83c.16-.03.32-.07.47-.12l.95.44 1.08-.63.1-1.01.35-.34 1.05-.1.62-1.08-.42-.92c.05-.15.09-.31.13-.47l.86-.61v-1.25l-.83-.59a3.51 3.51 0 0 0-.12-.49zm-5.4 5.68c-2.23 0-4.05-1.81-4.05-4.05 0-2.23 1.81-4.05 4.05-4.05 2.23 0 4.05 1.81 4.05 4.05a4.06 4.06 0 0 1-4.05 4.05z" fill="#2a2b2a"/></svg>