<svg xmlns="http://www.w3.org/2000/svg" viewBox="0 0 21.66 21.23" xmlns:v="https://vecta.io/nano"><path d="M10.9 20.4h0c-5.37 0-9.73-4.36-9.73-9.73h0C1.17 5.3 5.53.94 10.9.94h0c5.37 0 9.73 4.36 9.73 9.73h0c-.01 5.38-4.36 9.73-9.73 9.73z" fill="none" stroke="#151715" stroke-width=".432" stroke-miterlimit="10"/><path d="M15.07 12.47l-1.56-.74c-.21-.08-.36-.11-.51.11-.15.23-.59.74-.72.89-.14.15-.27.17-.5.06s-.96-.35-1.84-1.13a6.63 6.63 0 0 1-1.27-1.57c-.13-.23-.01-.35.1-.46.1-.1.23-.27.34-.4a.7.7 0 0 0 .08-.1c.05-.08.09-.16.14-.27.08-.15.04-.28-.02-.4l-.7-1.68c-.18-.46-.37-.38-.51-.38-.13 0-.28-.02-.44-.02a.87.87 0 0 0-.61.28c-.21.23-.8.78-.8 1.89 0 .26.05.52.12.77a4.96 4.96 0 0 0 .82 1.57c.11.15 1.58 2.51 3.9 3.42 2.33.9 2.33.6 2.74.56.42-.04 1.35-.55 1.54-1.08s.19-.98.14-1.08c-.06-.07-.21-.13-.44-.24z" fill-rule="evenodd" fill="#151715"/></svg>