<svg xmlns="http://www.w3.org/2000/svg" viewBox="0 0 21.66 21.23" xmlns:v="https://vecta.io/nano"><path d="M10.83 20.34h0c-5.37 0-9.73-4.36-9.73-9.73h0C1.1 5.24 5.46.88 10.83.88h0c5.37 0 9.73 4.36 9.73 9.73h0a9.73 9.73 0 0 1-9.73 9.73z" fill="none" stroke="#151715" stroke-width=".432" stroke-miterlimit="10"/><path d="M10.83 4.64c-2.63 0-4.77 2.14-4.77 4.77 0 1.92 2.54 5.18 3.91 6.8a1.12 1.12 0 0 0 1.71 0c1.37-1.62 3.91-4.87 3.91-6.8.01-2.64-2.13-4.77-4.76-4.77zm0 6.35a1.81 1.81 0 1 1 0-3.62 1.81 1.81 0 1 1 0 3.62z"/></svg>