<svg xmlns="http://www.w3.org/2000/svg" width="25" height="40" xmlns:v="https://vecta.io/nano"><path d="M21.4 15.3c-.6 0-1 .5-1 1v8.8c0 2.2-.7 4.1-1.9 5.6a7.6 7.6 0 0 1-12.1 0c-1.1-1.5-1.8-3.4-1.8-5.6v-8.8c0-.5-.5-1-1.1-1s-1.1.5-1.1 1v8.8c0 2.9 1.1 5.6 3 7.7q0 0 .1 0a9.67 9.67 0 0 0 14 0q0 0 0 0c1.9-2.1 3-4.8 3-7.7v-8.8c0-.5-.5-1-1.1-1z" fill="#d59b3d"/><path fill-rule="evenodd" d="M19 12.1v13.5c0 3.4-2.9 6.2-6.3 6.2q-.1 0-.2 0c-3.4-.2-6.1-2.9-6.1-6.2V7.1c0-.6.5-1 1.1-1q.4 0 .7.3c.2.2.4.4.4.7v8.2h1.5V7.6v-2c0-.6.4-1.1 1-1.1h.1q0 0 0 0 0 0 0 0 0 0 0 0 .5 0 .7.3c.2.2.4.5.4.8v9.7h1.3V8.9c0-.5.4-.9.9-1q0-.1.1-.1l.2.1q.1 0 .1 0 .3.1.5.3c.2.2.3.4.3.7v6.4h1.1v-3.2a1.11 1.11 0 0 1 1.1-1.1c.3 0 .6.2.7.3.2.2.4.5.4.8zm-2.2 5.3h-3.2-.1v3.1c0 .7-.5 1.2-1.1 1.1q-.4 0-.7-.3-.3-.3-.3-.7v-3.2H8.6v8.2q0 .7.2 1.3.3.9 1 1.6.1.1.2.2.6.5 1.4.8 0 0 0 0v-4.7c0-.6.5-1 1.1-1s1 .5 1 1.1v4.7q0 0 0 0 .2-.1.4-.1c.7-.2 1.5-.7 2-1.3q.5-.7.8-1.5.1-.4.1-.7 0-.2 0-.4z" fill="#1b2a37"/></svg>