<svg xmlns="http://www.w3.org/2000/svg" viewBox="0 0 248.04 245.67" xmlns:v="https://vecta.io/nano"><path d="M175.77 78.63a6.12 6.12 0 0 0-6.12 6.12l-.03 50.27c0 12.54-3.93 23.75-10.61 32.4a43.79 43.79 0 0 1-69.7 0c-6.68-8.66-10.6-19.86-10.6-32.4l-.05-50.26c0-3.38-2.74-6.12-6.13-6.12h0a6.13 6.13 0 0 0-6.13 6.13v50.26c0 16.86 6.06 32.62 17.06 44.31.1.11.22.22.32.34 21.92 22.93 58.82 22.93 80.74 0 .1-.11.22-.22.32-.34 11-11.69 17.05-27.45 17.05-44.31V84.75a6.12 6.12 0 0 0-6.12-6.12h0z" fill="#d4993c"/><g fill="#1d2a37"><path d="M159.74 55.97c-1.1-1.11-2.63-1.81-4.34-1.81-3.4 0-6.16 2.76-6.16 6.15v18.33h-6.41l.04-36.66a6.11 6.11 0 0 0-1.79-4.34c-.75-.75-1.71-1.32-2.78-1.59a1.72 1.72 0 0 0-.46-.11l-1.11-.1c-.38 0-.75.03-1.11.1-2.88.52-5.03 3.04-5.03 6.04v36.66h-7.62v-55.9c0-1.75-.71-3.34-1.85-4.49-1.04-1.03-2.43-1.71-3.98-1.83-.02 0-.04 0-.06.01h-.09a1.07 1.07 0 0 0-.25-.03c-.04-.01-.07-.01-.1-.01h-.07c-3.48.04-6.28 2.86-6.28 6.34v11.5l-.02 44.41h-8.58V31.72c0-1.71-.69-3.24-1.81-4.36-1.11-1.11-2.65-1.79-4.36-1.79a6.16 6.16 0 0 0-6.15 6.15v106.36c0 19.14 15.5 34.79 34.81 35.44.42.04.84.04 1.28.04 19.91 0 36.08-15.92 36.08-35.48l.02-77.78c-.01-1.7-.71-3.24-1.82-4.33zm-10.51 82.12a24.52 24.52 0 0 1-.1 2.08c-.12 1.37-.37 2.75-.72 4.03-.9 3.26-2.49 6.22-4.61 8.75-2.99 3.58-7.08 6.24-11.55 7.55-.64.19-1.27.36-1.94.48-.02.02-.04.02-.06.02v-27.13c0-3.34-2.59-6.25-5.93-6.33-3.46-.08-6.27 2.67-6.27 6.09v26.68c-.02 0-.04-.02-.06-.02-2.97-.96-5.68-2.47-7.98-4.43-.48-.38-.92-.81-1.35-1.23a23.24 23.24 0 0 1-5.77-9.13c-.82-2.38-1.23-4.89-1.23-7.41V90.94h16.39v18.27c0 1.68.67 3.19 1.79 4.3 1.05 1.07 2.48 1.73 4.09 1.79 3.48.11 6.31-2.87 6.31-6.33V90.94h.32v.05h18.66v47.1zM46.39 225.24H43c-1.92 0-3.27-.98-4.03-2.95-.6.94-1.75 1.44-3.41 1.44-2.88 0-4.73-2.5-4.73-5.81 0-3.58 1.8-5.88 4.97-5.88 0-.02 2.14-.02 6.41-.02v7.57c0 1.58.82 2.45 2.45 2.45h1.73v3.2zm-9.89-15.47h-2.98v-2.79h2.98v2.79zm2.26 7.88v-3.17h-2.21c-1.37 0-2.38 1.51-2.38 3.39 0 1.68.96 3.07 2.31 3.07 1.41 0 2.28-1.32 2.28-3.29zm2.25-7.88h-2.98v-2.79h2.98v2.79z"/><path d="M48.22 229.23h-2.98v-2.79h2.98v2.79zm8.38-3.99H45.8v-3.22h2.21c1.13 0 1.68-.77 1.68-2.31v-5.36h3.39v5.24c0 .89-.12 1.68-.38 2.43h3.91v3.22zm-3.86 3.99h-2.98v-2.79h2.98v2.79z"/><path d="M63.33 220.6c0 1.27-.36 2.33-1.06 3.17-.79.98-1.9 1.46-3.29 1.46h-2.86v-3.22h2.14c1.13 0 1.71-.79 1.71-2.35v-5.31h3.36v6.25zm-.22-8.07h-3v-2.76h3v2.76zm6.03 12.71h-3.36v-15.49h3.36v15.49zm18.16 0H71.74v-3.22h8.72c0-3.36-1.83-4.85-6.1-4.85v-2.81c2.11 0 3.6.14 4.49.46 3.31 1.18 4.97 3.55 4.97 7.18h3.48v3.24z"/><path d="M103.04 225.24H99.2c-.98 1.37-2.5 2.07-4.49 2.07-2.04 0-3.55-.7-4.56-2.07h-3.67v-3.22h2.69c0-3.46 1.97-5.62 5.45-5.62 3.51 0 5.62 2.09 5.62 5.62h2.81v3.22zm-6.15-3.29c0-1.9-.72-2.86-2.14-2.86h-.24c-1.22 0-2.04 1.15-2.04 2.71 0 1.61.82 2.76 2.23 2.76 1.37.01 2.19-1 2.19-2.61z"/><path d="M121.82 225.24h-19.6v-3.22h13.64c-.07-1.27-.53-2.35-1.37-3.27-.94-1.03-2.19-1.56-3.7-1.56-1.44 0-3.07.74-4.01 1.73l-1.68-2.28a7.85 7.85 0 0 1 5.93-2.54c1.42 0 2.67.26 3.75.77 2.57 1.23 4.08 3.6 4.49 7.16h2.55v3.21z"/><path d="M128.31 220.6c0 1.27-.36 2.33-1.06 3.17-.79.98-1.9 1.46-3.31 1.46h-3.17v-3.22h2.47c1.13 0 1.71-.79 1.71-2.35v-9.89h3.36v10.83zm5.81 4.64h-3.36v-15.49h3.36v15.49zm24.43 0h-.22c-3.46-.02-5.72-1.51-6.75-4.52h-4.01c-2.38 0-3.41.77-3.41 2.62 0 1.75 1.13 2.64 3.41 2.64h4.61v3.24h-4.42c-4.49 0-6.84-2.23-6.84-5.88 0-2.71 1.42-4.73 3.99-5.52-.38-.87-.58-1.73-.58-2.57 0-3.05 2.19-5.48 5.24-5.48 2.02 0 3.7 1.08 4.49 2.93l-2.69 1.25c-.31-.94-.91-1.39-1.85-1.39-1.18 0-2.02 1.06-2.02 2.54 0 1.25.46 2.04 1.35 2.38h5.38c0 3.1 1.34 4.54 4.06 4.54h.26v3.22z"/><path d="M174.48 225.24h-3.84c-.99 1.37-2.5 2.07-4.49 2.07-2.04 0-3.55-.7-4.56-2.07h-3.67v-3.22h2.69c0-3.46 1.97-5.62 5.45-5.62 3.51 0 5.62 2.09 5.62 5.62h2.81v3.22zm-6.15-3.29c0-1.9-.72-2.86-2.14-2.86h-.24c-1.22 0-2.04 1.15-2.04 2.71 0 1.61.82 2.76 2.23 2.76 1.37.01 2.19-1 2.19-2.61z"/><path d="M176.26 212.53h-2.98v-2.76h2.98v2.76zm8.31 12.71h-10.83v-3.22h2.21c1.13 0 1.71-.77 1.71-2.31v-5.36h3.39v5.24a7.04 7.04 0 0 1-.41 2.43h3.94v3.22zm-3.8-12.71h-2.98v-2.76h2.98v2.76z"/><path d="M204.07 225.24h-20.08v-3.22h13.64c-.07-1.27-.53-2.35-1.37-3.27-.94-1.03-2.19-1.56-3.7-1.56-1.44 0-3.07.74-4.01 1.73l-1.68-2.28a7.85 7.85 0 0 1 5.93-2.54c1.42 0 2.67.26 3.75.77 2.57 1.23 4.08 3.6 4.49 7.16h3.03v3.21zm-9.51 3.99h-2.98v-2.79h2.98v2.79z"/><path d="M217.21 221.83c0 3.22-2.16 5.48-5.52 5.48-2.04 0-3.58-.7-4.56-2.07h-4.32v-3.22h3.34c0-3.43 1.97-5.62 5.43-5.62 3.45 0 5.63 2.14 5.63 5.43zm-3.34.12c0-1.9-.72-2.86-2.14-2.86h-.24c-1.22 0-2.07 1.13-2.07 2.71 0 1.63.82 2.76 2.26 2.76 1.33.01 2.19-1.05 2.19-2.61z"/></g></svg>