<svg xmlns="http://www.w3.org/2000/svg" viewBox="0 0 20.04 21.1" fill="#3f444a" xmlns:v="https://vecta.io/nano"><path d="M9.81 2.95c-4.18 0-7.57 3.39-7.57 7.57s3.39 7.57 7.57 7.57 7.57-3.39 7.57-7.57c0-4.19-3.39-7.57-7.57-7.57zm.57 13.96v-.51a.57.57 0 0 0-.57-.57c-.31 0-.57.26-.57.57v.51a6.44 6.44 0 0 1-5.83-5.84h.49a.57.57 0 0 0 .57-.57.58.58 0 0 0-.57-.58h-.49c.29-3.07 2.75-5.53 5.83-5.8v.47a.57.57 0 0 0 .57.57c.31 0 .57-.26.57-.57v-.47a6.43 6.43 0 0 1 5.82 5.81h-.49a.57.57 0 0 0-.57.57c0 .31.26.57.57.57h.49c-.26 3.09-2.73 5.57-5.82 5.84zm2.83-10.08l-3.38 3.54c-.06 0-.1 0-.14.01L6.86 8.24a.43.43 0 0 0-.6.09c-.14.19-.11.46.08.6l2.83 2.14c.03.33.3.59.64.59.35 0 .64-.29.64-.64v-.05l3.38-3.54a.44.44 0 0 0-.01-.61c-.17-.17-.44-.16-.61.01z"/></svg>