<svg xmlns="http://www.w3.org/2000/svg" width="30" height="30" xmlns:v="https://vecta.io/nano"><path d="M14.8 24.8c-5.4 0-9.7-4.3-9.7-9.7s4.3-9.7 9.7-9.7 9.7 4.3 9.7 9.7-4.3 9.7-9.7 9.7z" fill="none" stroke="#151714" stroke-width=".4"/><g fill="#151714"><path fill-rule="evenodd" d="M20.7 14.8c0 3-2.5 5.5-5.7 5.5-.9 0-1.9-.2-2.7-.6l-3.1.9 1-3c-.5-.8-.8-1.8-.8-2.8q0-.2 0-.3c.2-2.9 2.6-5.3 5.6-5.3 3.1 0 5.6 2.4 5.7 5.4q0 .1 0 .2zm-.9 0q0-.2 0-.4c-.2-2.4-2.3-4.3-4.8-4.3-2.4 0-4.4 1.8-4.7 4.2q0 .2 0 .5c0 1 .4 1.9.9 2.7l-.6 1.8 1.8-.6c.8.5 1.7.8 2.6.8 2.7 0 4.8-2.1 4.8-4.7z"/><path d="M17.6 15.9c-.1-.1-.8-.4-.9-.5-.1 0-.2 0-.3.1-.1.2-.4.5-.5.6 0 0-.1.1-.3 0-.1-.1-.5-.2-1.1-.7-.4-.4-.7-.8-.7-.9-.1-.2 0-.3 0-.3q.1-.1.2-.3.1 0 .1 0 0-.1.1-.2 0-.1 0-.2c-.1-.1-.4-.8-.5-1-.1-.3-.2-.3-.3-.3q-.1 0-.2 0a.76.76 0 0 0-.4.2c-.1.1-.5.5-.5 1.1q0 .3.1.5c.1.5.4.9.5.9 0 .1.9 1.6 2.3 2.1 1.4.6 1.4.4 1.7.4.2-.1.8-.4.9-.7s.1-.6.1-.6q-.1-.1-.3-.2z"/></g></svg>